{"title":"Silver Hawk (Fei ying) 2004 DVDRip x264 Audi AC3","uid":7328959,"size":1437858684,"categoryP":"video","categoryS":"movies","magnet":"?xt=urn:btih:9c3b525e9a155d7b98c389948c10e40de0a0d7e0&amp;dn=Silver+Hawk+%28Fei+ying%29+2004+DVDRip+x264+Audi+AC3&amp;tr=udp%3A%2F%2Ftracker.openbittorrent.com%3A80&amp;tr=udp%3A%2F%2Fopen.demonii.com%3A1337&amp;tr=udp%3A%2F%2Ftracker.coppersurfer.tk%3A6969&amp;tr=udp%3A%2F%2Fexodus.desync.com%3A6969","seeders":0,"leechers":1,"uploader":"roch90","files":1,"time":1338848441,"description":"This 2004 movie follows a Chinese socialite (Michelle Yeoh) who, in her spare time, fights the forces of evil. She teams up with her childhood buddy, Mr. Rich Man, who is a police officer, to foil a kidnapping ring with more sinister undertones... world domination.\n\n\n\nGeneral\nFormat                                   : AVI\nFormat/Info                              : Audio Video Interleave\nFile size                                : 1.34 GiB\nDuration                                 : 1h 39mn\nOverall bit rate                         : 1 934 Kbps\nMovie name                               : SILVER_HAWK.Title4.DVDRip\nWriting application                      : Lavf52.33.0\nOriginal source form/Name                : SILVER_HAWK\n\nVideo\nFormat                                   : AVC\nFormat/Info                              : Advanced Video Codec\nFormat profile                           : &lt;a class=&quot;__cf_email__&quot; href=&quot;/cdn-cgi/l/email-protection&quot; data-cfemail=&quot;95d7f4e6f0f9fcfbf0d5d9a4bba6&quot;&gt;[email&amp;#160;protected]&lt;/a&gt;&lt;script cf-hash='f9e31' type=&quot;text/javascript&quot;&gt;\n/* &lt;![CDATA[ */!function(){try{var t=&quot;currentScript&quot;in document?document.currentScript:function(){for(var t=document.getElementsByTagName(&quot;script&quot;),e=t.length;e--;)if(t[e].getAttribute(&quot;cf-hash&quot;))return t[e]}();if(t&amp;&amp;t.previousSibling){var e,r,n,i,c=t.previousSibling,a=c.getAttribute(&quot;data-cfemail&quot;);if(a){for(e=&quot;&quot;,r=parseInt(a.substr(0,2),16),n=2;a.length-n;n+=2)i=parseInt(a.substr(n,2),16)^r,e+=String.fromCharCode(i);e=document.createTextNode(e),c.parentNode.replaceChild(e,c)}}}catch(u){}}();/* ]]&gt; */&lt;/script&gt;\nFormat settings, CABAC                   : No\nFormat settings, ReFrames                : 1 frame\nCodec ID                                 : H264\nDuration                                 : 1h 39mn\nBit rate                                 : 1 792 Kbps\nWidth                                    : 800 pixels\nHeight                                   : 338 pixels\nDisplay aspect ratio                     : 2.35:1\nFrame rate                               : 29.970 fps\nColor space                              : YUV\nChroma subsampling                       : 4:2:0\nBit depth                                : 8 bits\nScan type                                : Progressive\nBits/(Pixel*Frame)                       : 0.221\nStream size                              : 1.24 GiB (93%)\nWriting library                          : x264 core 67\n\nAudio\nFormat                                   : MPEG Audio\nFormat version                           : Version 1\nFormat profile                           : Layer 3\nMode                                     : Joint stereo\nMode extension                           : MS Stereo\nCodec ID                                 : 55\nCodec ID/Hint                            : MP3\nDuration                                 : 1h 39mn\nBit rate mode                            : Constant\nBit rate                                 : 128 Kbps\nChannel(s)                               : 2 channels\nSampling rate                            : 48.0 KHz\nCompression mode                         : Lossy\nStream size                              : 90.8 MiB (7%)\nAlignment                                : Aligned on interleaves\nInterleave, duration                     : 24 ms (0.72 video frame)\n\n","torrent":{"xt":"urn:btih:9c3b525e9a155d7b98c389948c10e40de0a0d7e0","amp;dn":"Silver+Hawk+%28Fei+ying%29+2004+DVDRip+x264+Audi+AC3","amp;tr":["udp%3A%2F%2Ftracker.openbittorrent.com%3A80","udp%3A%2F%2Fopen.demonii.com%3A1337","udp%3A%2F%2Ftracker.coppersurfer.tk%3A6969","udp%3A%2F%2Fexodus.desync.com%3A6969"],"infoHash":"9c3b525e9a155d7b98c389948c10e40de0a0d7e0","infoHashBuffer":{"type":"Buffer","data":[156,59,82,94,154,21,93,123,152,195,137,148,140,16,228,13,224,160,215,224]},"announce":[],"urlList":[]}}